<svg xmlns="http://www.w3.org/2000/svg" xmlns:xlink="http://www.w3.org/1999/xlink" width="120px" height="119px" viewBox="0 0 120 119"><title>Group 3</title><g id="Symbols" stroke="none" stroke-width="1" fill="none" fill-rule="evenodd"><g id="1---Nav/Primary/Simple" transform="translate(-210.000000, -26.000000)"><g id="Group-3" transform="translate(210.000000, 26.000000)"><rect id="Rectangle" fill="#45BAB5" x="0" y="0" width="120" height="118.153846"></rect><g id="Group-50" transform="translate(16.817308, 23.076923)"><path d="M0.338732863,0.363531735 L6.44399472,0.363531735 C10.6366983,0.363531735 12.4387041,2.2913267 12.4387041,6.21851888 L12.4387041,7.23734786 C12.4387041,9.85547598 11.6294598,11.4919427 9.82745401,12.2188969 L9.82745401,12.2921388 C11.9975996,13.0196396 12.8433262,14.910267 12.8433262,17.6016371 L12.8433262,19.7835927 C12.8433262,23.7113315 10.7472508,25.8205917 6.70102928,25.8205917 L0.338732863,25.8205917 L0.338732863,0.363531735 Z M5.96585515,10.7283675 C7.47379127,10.7283675 8.39303531,10.0735622 8.39303531,8.03699743 L8.39303531,6.61861695 C8.39303531,4.80068499 7.76786092,4.00048883 6.33344222,4.00048883 L4.38440163,4.00048883 L4.38440163,10.7283675 L5.96585515,10.7283675 Z M6.70102928,22.1836346 C8.06193057,22.1836346 8.79765746,21.5654503 8.79765746,19.6748229 L8.79765746,17.4562463 C8.79765746,15.0922788 8.02544824,14.3647781 6.18640739,14.3647781 L4.38440163,14.3647781 L4.38440163,22.1836346 L6.70102928,22.1836346 Z" id="Fill-2" fill="#FFFFFF"></path><path d="M15.1974865,0.363531735 L21.1921958,0.363531735 C25.3848994,0.363531735 27.1869052,2.2913267 27.1869052,6.21851888 L27.1869052,7.78283677 C27.1869052,10.4009649 26.3411785,12.0740526 24.5391728,12.8010068 L24.5391728,12.8737022 C26.5622835,13.4918865 27.2239403,15.383607 27.2239403,18.2564424 L27.2239403,22.7291235 C27.2239403,23.9660387 27.2609753,24.8750047 27.6650447,25.8205917 L23.5464113,25.8205917 C23.3253063,25.1657864 23.1782715,24.7656883 23.1782715,22.6930491 L23.1782715,18.0378096 C23.1782715,15.6743887 22.4795797,14.910267 20.6405388,14.910267 L19.2431552,14.910267 L19.2431552,25.8205917 L15.1974865,25.8205917 L15.1974865,0.363531735 Z M20.7140563,11.2738565 C22.2219924,11.2738565 23.1417892,10.6190511 23.1417892,8.58248633 L23.1417892,6.61861695 C23.1417892,4.80068499 22.5166148,4.00048883 21.0821961,4.00048883 L19.2431552,4.00048883 L19.2431552,11.2738565 L20.7140563,11.2738565 Z" id="Fill-4" fill="#FFFFFF"></path><path d="M33.1457955,0.363531735 L38.625883,0.363531735 L42.8185866,25.8205917 L38.7729178,25.8205917 L38.0371909,20.7658007 L38.0371909,20.8384961 L33.4398652,20.8384961 L32.704691,25.8205917 L28.9530919,25.8205917 L33.1457955,0.363531735 Z M37.5590514,17.3835508 L35.7570456,4.80068499 L35.6835282,4.80068499 L33.9180047,17.3835508 L37.5590514,17.3835508 Z" id="Fill-6" fill="#FFFFFF"></path><polygon id="Fill-8" fill="#FFFFFF" points="44.7679036 0.363531735 49.8433689 0.363531735 53.7784851 15.6016933 53.8520025 15.6016933 53.8520025 0.363531735 57.4565668 0.363531735 57.4565668 25.8205917 53.3003456 25.8205917 48.4459853 7.23734786 48.3719151 7.23734786 48.3719151 25.8205917 44.7679036 25.8205917"></polygon><path d="M60.4723838,0.363531735 L66.6511631,0.363531735 C70.6968318,0.363531735 72.6829075,2.58210836 72.6829075,6.65523795 L72.6829075,19.5288855 C72.6829075,23.6020151 70.6968318,25.8205917 66.6511631,25.8205917 L60.4723838,25.8205917 L60.4723838,0.363531735 Z M66.5776456,22.1836346 C67.8650295,22.1836346 68.6372387,21.5293758 68.6372387,19.7108973 L68.6372387,6.47322612 C68.6372387,4.65474757 67.8650295,4.00048883 66.5776456,4.00048883 L64.5180525,4.00048883 L64.5180525,22.1836346 L66.5776456,22.1836346 Z" id="Fill-10" fill="#FFFFFF"></path><path d="M74.7057419,19.7835381 L74.7057419,18.3290832 L78.5308584,18.3290832 L78.5308584,20.0743197 C78.5308584,21.8927983 79.3401027,22.5476036 80.6269338,22.5476036 C81.9143177,22.5476036 82.723562,21.8927983 82.723562,20.0021709 C82.723562,17.8923641 81.9143177,16.5472256 79.2665853,14.2559536 C75.8825733,11.3104228 74.7792593,9.237237 74.7792593,6.32778063 C74.7792593,2.32734646 76.8758875,0 80.8110037,0 C84.74612,0 86.6957134,2.32734646 86.6957134,6.40047605 L86.6957134,7.45537945 L82.8705968,7.45537945 L82.8705968,6.1457688 C82.8705968,4.32783684 82.1348699,3.63641052 80.8480388,3.63641052 C79.560655,3.63641052 78.8249281,4.32783684 78.8249281,6.07361997 C78.8249281,7.92817294 79.6712075,9.273858 82.3189398,11.5645835 C85.7023991,14.5106608 86.7692308,16.5472256 86.7692308,19.7108426 C86.7692308,23.8566676 84.6361203,26.1840141 80.6639689,26.1840141 C76.6918176,26.1840141 74.7057419,23.8566676 74.7057419,19.7835381" id="Fill-12" fill="#FFFFFF"></path><polygon id="Fill-14" fill="#F5C953" points="0.127743415 31.8971632 7.24953552 31.8971632 7.24953552 34.316882 2.81969681 34.316882 2.81969681 39.0360716 6.29491467 39.0360716 6.29491467 41.4557905 2.81969681 41.4557905 2.81969681 48.8362882 0.127743415 48.8362882"></polygon><path d="M8.34964345,44.8194565 L8.34964345,35.9139948 C8.34964345,33.2040409 9.79345911,31.6550273 12.4367694,31.6550273 C15.0795269,31.6550273 16.5238954,33.2040409 16.5238954,35.9139948 L16.5238954,44.8194565 C16.5238954,47.529957 15.0795269,49.078424 12.4367694,49.078424 C9.79345911,49.078424 8.34964345,47.529957 8.34964345,44.8194565 M13.8313892,44.988897 L13.8313892,35.7445544 C13.8313892,34.5349683 13.2929985,34.0752928 12.4367694,34.0752928 C11.5799875,34.0752928 11.0415968,34.5349683 11.0415968,35.7445544 L11.0415968,44.988897 C11.0415968,46.1984831 11.5799875,46.6587052 12.4367694,46.6587052 C13.2929985,46.6587052 13.8313892,46.1984831 13.8313892,44.988897" id="Fill-16" fill="#F5C953"></path><path d="M18.3335845,31.8971632 L22.3228715,31.8971632 C25.1126639,31.8971632 26.3116057,33.1794447 26.3116057,35.7932002 L26.3116057,36.8338925 C26.3116057,38.5758495 25.7488935,39.6892372 24.5499516,40.1735089 L24.5499516,40.2216081 C25.8959283,40.6331844 26.3364801,41.8914164 26.3364801,43.8033604 L26.3364801,46.7794998 C26.3364801,47.6021058 26.3608016,48.2071722 26.629997,48.8362882 L23.8888477,48.8362882 C23.7423656,48.4012088 23.6445267,48.1344768 23.6445267,46.7554502 L23.6445267,43.6579696 C23.6445267,42.0849064 23.1791006,41.5765851 21.9558372,41.5765851 L21.0255379,41.5765851 L21.0255379,48.8362882 L18.3335845,48.8362882 L18.3335845,31.8971632 Z M22.0044803,39.1568663 C23.0077443,39.1568663 23.6196524,38.7212404 23.6196524,37.3662634 L23.6196524,36.0593857 C23.6196524,34.849253 23.203975,34.316882 22.2493541,34.316882 L21.0255379,34.316882 L21.0255379,39.1568663 L22.0044803,39.1568663 Z" id="Fill-18" fill="#F5C953"></path><path d="M32.1102502,31.8971632 L36.1730547,31.8971632 C38.962847,31.8971632 40.1617889,33.1794447 40.1617889,35.7932002 L40.1617889,36.470962 C40.1617889,38.212919 39.6233982,39.3022571 38.4244563,39.7859822 L38.4244563,39.8340815 C39.868272,40.3183532 40.4309842,41.5765851 40.4309842,43.3677345 L40.4309842,44.8194565 C40.4309842,47.4326654 39.0363644,48.8362882 36.3438583,48.8362882 L32.1102502,48.8362882 L32.1102502,31.8971632 Z M35.8546634,38.7939358 C36.8579274,38.7939358 37.4698355,38.3583099 37.4698355,37.0033329 L37.4698355,36.0593857 C37.4698355,34.849253 37.0536053,34.316882 36.0995372,34.316882 L34.8022036,34.316882 L34.8022036,38.7939358 L35.8546634,38.7939358 Z M36.3438583,46.4165693 C37.2492832,46.4165693 37.7390308,46.0055396 37.7390308,44.7467611 L37.7390308,43.2709895 C37.7390308,41.6979263 37.2249617,41.2136546 36.0016983,41.2136546 L34.8022036,41.2136546 L34.8022036,46.4165693 L36.3438583,46.4165693 Z" id="Fill-20" fill="#F5C953"></path><polygon id="Fill-22" fill="#F5C953" points="41.9962418 31.8971632 49.3380334 31.8971632 49.3380334 34.316882 44.6881952 34.316882 44.6881952 38.7939358 48.3834125 38.7939358 48.3834125 41.2136546 44.6881952 41.2136546 44.6881952 46.4165693 49.3380334 46.4165693 49.3380334 48.8362882 41.9962418 48.8362882"></polygon><polygon id="Fill-24" fill="#F5C953" points="52.9836679 34.3171553 50.1690013 34.3171553 50.1690013 31.8974365 58.4897352 31.8974365 58.4897352 34.3171553 55.6756213 34.3171553 55.6756213 48.8365614 52.9836679 48.8365614"></polygon><polygon id="Fill-26" fill="#F5C953" points="62.1355356 34.3171553 59.3208689 34.3171553 59.3208689 31.8974365 67.6416029 31.8974365 67.6416029 34.3171553 64.827489 34.3171553 64.827489 48.8365614 62.1355356 48.8365614"></polygon><polygon id="Fill-28" fill="#F5C953" points="68.9380521 31.8971632 76.2798437 31.8971632 76.2798437 34.316882 71.6300055 34.316882 71.6300055 38.7939358 75.3252228 38.7939358 75.3252228 41.2136546 71.6300055 41.2136546 71.6300055 46.4165693 76.2798437 46.4165693 76.2798437 48.8362882 68.9380521 48.8362882"></polygon><path d="M77.8207244,31.8971632 L81.8100114,31.8971632 C84.5998038,31.8971632 85.7987456,33.1794447 85.7987456,35.7932002 L85.7987456,36.8338925 C85.7987456,38.5758495 85.2360334,39.6892372 84.0370915,40.1735089 L84.0370915,40.2216081 C85.3830682,40.6331844 85.82362,41.8914164 85.82362,43.8033604 L85.82362,46.7794998 C85.82362,47.6021058 85.8479415,48.2071722 86.1171368,48.8362882 L83.3759876,48.8362882 C83.2295055,48.4012088 83.1311138,48.1344768 83.1311138,46.7554502 L83.1311138,43.6579696 C83.1311138,42.0849064 82.6662405,41.5765851 81.4429771,41.5765851 L80.5126778,41.5765851 L80.5126778,48.8362882 L77.8207244,48.8362882 L77.8207244,31.8971632 Z M81.4916202,39.1568663 C82.4948842,39.1568663 83.1067922,38.7212404 83.1067922,37.3662634 L83.1067922,36.0593857 C83.1067922,34.849253 82.6911148,34.316882 81.736494,34.316882 L80.5126778,34.316882 L80.5126778,39.1568663 L81.4916202,39.1568663 Z" id="Fill-30" fill="#F5C953"></path><polygon id="Fill-32" fill="#FFFFFF" points="0 54.4982225 6.92113931 54.4982225 6.92113931 56.8501652 2.61622493 56.8501652 2.61622493 61.4359887 5.99360383 61.4359887 5.99360383 63.7873848 2.61622493 63.7873848 2.61622493 70.9601813 0 70.9601813"></polygon><path d="M7.9904031,67.0565468 L7.9904031,58.4019663 C7.9904031,55.7679873 9.3938671,54.2632469 11.9620017,54.2632469 C14.5306891,54.2632469 15.934153,55.7679873 15.934153,58.4019663 L15.934153,67.0565468 C15.934153,69.6905258 14.5306891,71.1952663 11.9620017,71.1952663 C9.3938671,71.1952663 7.9904031,69.6905258 7.9904031,67.0565468 M13.3179281,67.221068 L13.3179281,58.2374451 C13.3179281,57.0617471 12.794462,56.614643 11.9620017,56.614643 C11.1295414,56.614643 10.606628,57.0617471 10.606628,58.2374451 L10.606628,67.221068 C10.606628,68.3973127 11.1295414,68.8438702 11.9620017,68.8438702 C12.794462,68.8438702 13.3179281,68.3973127 13.3179281,67.221068" id="Fill-34" fill="#FFFFFF"></path><path d="M17.5978576,67.0565468 L17.5978576,54.4982772 L20.2140826,54.4982772 L20.2140826,67.2445711 C20.2140826,68.4202691 20.7132271,68.8438702 21.5456874,68.8438702 C22.3781478,68.8438702 22.8778451,68.4202691 22.8778451,67.2445711 L22.8778451,54.4982772 L25.3989949,54.4982772 L25.3989949,67.0565468 C25.3989949,69.6905258 24.0668372,71.1952663 21.4981499,71.1952663 C18.9294625,71.1952663 17.5978576,69.6905258 17.5978576,67.0565468" id="Fill-36" fill="#FFFFFF"></path><polygon id="Fill-38" fill="#FFFFFF" points="27.2530156 54.4982225 30.5353193 54.4982225 33.0796851 64.3520041 33.1277755 64.3520041 33.1277755 54.4982225 35.4582222 54.4982225 35.4582222 70.9601813 32.7706909 70.9601813 29.6315526 58.9430279 29.584015 58.9430279 29.584015 70.9601813 27.2530156 70.9601813"></polygon><path d="M37.4071522,54.4982225 L41.4025196,54.4982225 C44.0192973,54.4982225 45.3033646,55.9324539 45.3033646,58.5669794 L45.3033646,66.891971 C45.3033646,69.52595 44.0192973,70.9601813 41.4025196,70.9601813 L37.4071522,70.9601813 L37.4071522,54.4982225 Z M41.354982,68.6082387 C42.1874424,68.6082387 42.6871397,68.1851841 42.6871397,67.0094861 L42.6871397,58.4489177 C42.6871397,57.2732197 42.1874424,56.8501652 41.354982,56.8501652 L40.0233771,56.8501652 L40.0233771,68.6082387 L41.354982,68.6082387 Z" id="Fill-40" fill="#FFFFFF"></path><path d="M49.0362251,54.4982225 L52.5799855,54.4982225 L55.2912856,70.9601813 L52.6750606,70.9601813 L52.1996849,67.6916205 L52.1996849,67.73808 L49.2269281,67.73808 L48.7509996,70.9601813 L46.3254777,70.9601813 L49.0362251,54.4982225 Z M51.8901379,65.5041991 L50.7249145,57.3672318 L50.6773769,57.3672318 L49.5359224,65.5041991 L51.8901379,65.5041991 Z" id="Fill-42" fill="#FFFFFF"></path><polygon id="Fill-44" fill="#FFFFFF" points="57.5023356 56.8500558 54.7672667 56.8500558 54.7672667 54.4981132 62.8536294 54.4981132 62.8536294 56.8500558 60.1180077 56.8500558 60.1180077 70.960072 57.5023356 70.960072"></polygon><polygon id="Fill-46" fill="#FFFFFF" points="64.1136515 70.960236 66.7298764 70.960236 66.7298764 54.4982772 64.1136515 54.4982772"></polygon><path d="M68.4889325,67.0565468 L68.4889325,58.4019663 C68.4889325,55.7679873 69.8918438,54.2632469 72.4605311,54.2632469 C75.0292185,54.2632469 76.4321297,55.7679873 76.4321297,58.4019663 L76.4321297,67.0565468 C76.4321297,69.6905258 75.0292185,71.1952663 72.4605311,71.1952663 C69.8918438,71.1952663 68.4889325,69.6905258 68.4889325,67.0565468 M73.8159048,67.221068 L73.8159048,58.2374451 C73.8159048,57.0617471 73.2929915,56.614643 72.4605311,56.614643 C71.6280708,56.614643 71.1046047,57.0617471 71.1046047,58.2374451 L71.1046047,67.221068 C71.1046047,68.3973127 71.6280708,68.8438702 72.4605311,68.8438702 C73.2929915,68.8438702 73.8159048,68.3973127 73.8159048,67.221068" id="Fill-48" fill="#FFFFFF"></path><polygon id="Fill-49" fill="#FFFFFF" points="78.1912411 54.4982225 81.4735449 54.4982225 84.0184634 64.3520041 84.0654483 64.3520041 84.0654483 54.4982225 86.3964477 54.4982225 86.3964477 70.9601813 83.7089164 70.9601813 80.5697782 58.9430279 80.5216878 58.9430279 80.5216878 70.9601813 78.1912411 70.9601813"></polygon></g></g></g></g></svg>